<svg width="32" height="33" viewBox="0 0 32 33" fill="none" xmlns="http://www.w3.org/2000/svg">
<path d="M9.72158 28.3931L2.66669 29.9608L4.23443 22.9059C3.23394 21.0349 2.66669 18.8975 2.66669 16.6275C2.66669 9.26366 8.63622 3.29413 16 3.29413C23.3638 3.29413 29.3334 9.26366 29.3334 16.6275C29.3334 23.9912 23.3638 29.9608 16 29.9608C13.73 29.9608 11.5926 29.3936 9.72158 28.3931ZM10.1077 25.5755L10.9791 26.0415C12.51 26.8601 14.2207 27.2941 16 27.2941C21.8911 27.2941 26.6667 22.5185 26.6667 16.6275C26.6667 10.7364 21.8911 5.96079 16 5.96079C10.109 5.96079 5.33335 10.7364 5.33335 16.6275C5.33335 18.4068 5.76734 20.1175 6.58601 21.6484L7.05197 22.5197L6.1789 26.4485L10.1077 25.5755Z" fill="white"/>
</svg>
