<svg width="32" height="33" viewBox="0 0 32 33" fill="none" xmlns="http://www.w3.org/2000/svg">
<path d="M16 3.29413C23.3638 3.29413 29.3334 9.26366 29.3334 16.6275C29.3334 23.9912 23.3638 29.9608 16 29.9608C8.63622 29.9608 2.66669 23.9912 2.66669 16.6275C2.66669 9.26366 8.63622 3.29413 16 3.29413ZM16.213 21.9608C13.4991 21.9608 11.0558 23.1191 9.35037 24.9683C11.1739 26.424 13.4854 27.2941 16 27.2941C18.626 27.2941 21.0303 26.3452 22.8888 24.7716C21.1942 23.0373 18.8292 21.9608 16.213 21.9608ZM16 5.96079C10.109 5.96079 5.33335 10.7364 5.33335 16.6275C5.33335 19.0416 6.13535 21.2684 7.48745 23.056C9.67521 20.7396 12.7753 19.2941 16.213 19.2941C19.5255 19.2941 22.5244 20.6363 24.6958 22.8064C25.9368 21.0631 26.6667 18.9305 26.6667 16.6275C26.6667 10.7364 21.8911 5.96079 16 5.96079ZM16 7.29413C18.9455 7.29413 21.3334 9.68194 21.3334 12.6275C21.3334 15.5729 18.9455 17.9608 16 17.9608C13.0545 17.9608 10.6667 15.5729 10.6667 12.6275C10.6667 9.68194 13.0545 7.29413 16 7.29413ZM16 9.96079C14.5272 9.96079 13.3334 11.1547 13.3334 12.6275C13.3334 14.1003 14.5272 15.2941 16 15.2941C17.4728 15.2941 18.6667 14.1003 18.6667 12.6275C18.6667 11.1547 17.4728 9.96079 16 9.96079Z" fill="white"/>
</svg>
