<svg width="32" height="33" viewBox="0 0 32 33" fill="none" xmlns="http://www.w3.org/2000/svg">
<path d="M24.0414 22.7832L29.7516 28.4935L27.866 30.3791L22.1558 24.6688C20.1026 26.3115 17.4987 27.2941 14.6667 27.2941C8.04269 27.2941 2.66669 21.9181 2.66669 15.2941C2.66669 8.67013 8.04269 3.29413 14.6667 3.29413C21.2907 3.29413 26.6667 8.67013 26.6667 15.2941C26.6667 18.1261 25.684 20.73 24.0414 22.7832ZM21.3663 21.7939C22.9967 20.1136 24 17.8216 24 15.2941C24 10.1375 19.8234 5.96079 14.6667 5.96079C9.51002 5.96079 5.33335 10.1375 5.33335 15.2941C5.33335 20.4508 9.51002 24.6275 14.6667 24.6275C17.1942 24.6275 19.4862 23.6241 21.1664 21.9937L21.3663 21.7939Z" fill="white"/>
</svg>
